<svg width="16" height="16" viewBox="0 0 16 16" fill="none" xmlns="http://www.w3.org/2000/svg">
<path d="M6.82497 9.17497C7.16664 9.49997 7.16664 10.0333 6.82497 10.3583C6.49997 10.6833 5.96664 10.6833 5.64164 10.3583C4.86112 9.57662 4.42273 8.51712 4.42273 7.41247C4.42273 6.30782 4.86112 5.24833 5.64164 4.46664L8.59164 1.51664C9.37333 0.736121 10.4328 0.297729 11.5375 0.297729C12.6421 0.297729 13.7016 0.736121 14.4833 1.51664C15.2638 2.29833 15.7022 3.35782 15.7022 4.46247C15.7022 5.56712 15.2638 6.62662 14.4833 7.40831L13.2416 8.64997C13.25 7.96664 13.1416 7.28331 12.9083 6.63331L13.3 6.23331C13.5336 6.00221 13.719 5.72708 13.8456 5.42383C13.9722 5.12058 14.0374 4.79524 14.0374 4.46664C14.0374 4.13804 13.9722 3.81269 13.8456 3.50945C13.719 3.2062 13.5336 2.93107 13.3 2.69997C13.0689 2.46636 12.7937 2.2809 12.4905 2.15432C12.1872 2.02775 11.8619 1.96257 11.5333 1.96257C11.2047 1.96257 10.8794 2.02775 10.5761 2.15432C10.2729 2.2809 9.99773 2.46636 9.76664 2.69997L6.82497 5.64164C6.59136 5.87273 6.4059 6.14787 6.27932 6.45111C6.15275 6.75436 6.08757 7.0797 6.08757 7.40831C6.08757 7.73691 6.15275 8.06225 6.27932 8.3655C6.4059 8.66875 6.59136 8.94388 6.82497 9.17497ZM9.17497 5.64164C9.49997 5.31664 10.0333 5.31664 10.3583 5.64164C11.1388 6.42333 11.5772 7.48282 11.5772 8.58747C11.5772 9.69212 11.1388 10.7516 10.3583 11.5333L7.40831 14.4833C6.62662 15.2638 5.56712 15.7022 4.46247 15.7022C3.35782 15.7022 2.29833 15.2638 1.51664 14.4833C0.736121 13.7016 0.297729 12.6421 0.297729 11.5375C0.297729 10.4328 0.736121 9.37333 1.51664 8.59164L2.75831 7.34997C2.74997 8.03331 2.85831 8.71664 3.09164 9.37497L2.69997 9.76664C2.46636 9.99773 2.2809 10.2729 2.15432 10.5761C2.02775 10.8794 1.96257 11.2047 1.96257 11.5333C1.96257 11.8619 2.02775 12.1872 2.15432 12.4905C2.2809 12.7937 2.46636 13.0689 2.69997 13.3C2.93107 13.5336 3.2062 13.719 3.50945 13.8456C3.81269 13.9722 4.13804 14.0374 4.46664 14.0374C4.79524 14.0374 5.12058 13.9722 5.42383 13.8456C5.72708 13.719 6.00221 13.5336 6.23331 13.3L9.17497 10.3583C9.40859 10.1272 9.59405 9.85208 9.72062 9.54883C9.8472 9.24558 9.91237 8.92024 9.91237 8.59164C9.91237 8.26304 9.8472 7.9377 9.72062 7.63445C9.59405 7.3312 9.40859 7.05607 9.17497 6.82497C9.09404 6.74913 9.02952 6.65749 8.98542 6.55573C8.94132 6.45396 8.91856 6.34422 8.91856 6.23331C8.91856 6.12239 8.94132 6.01265 8.98542 5.91089C9.02952 5.80912 9.09404 5.71748 9.17497 5.64164Z" fill="white"/>
</svg>
