<svg width="16" height="16" viewBox="0 0 16 16" fill="none" xmlns="http://www.w3.org/2000/svg">
<path d="M4.09587 1.2645C2.90353 1.95983 1.95931 2.90328 1.26476 4.09639C0.5702 5.28872 0.222534 6.58994 0.222534 8.00005C0.222534 9.41016 0.570201 10.7114 1.26476 11.9045C1.95931 13.0968 2.90353 14.0411 4.09587 14.7356C5.2882 15.4302 6.5902 15.7778 8.00031 15.7778C9.41042 15.7778 10.7124 15.4309 11.9048 14.7356C13.0979 14.0403 14.0413 13.0968 14.7359 11.9037C15.4304 10.7114 15.7781 9.41016 15.7781 8.00005C15.7781 6.58994 15.4304 5.28872 14.7359 4.09561C14.0413 2.90327 13.0979 1.95905 11.9048 1.26372C10.7124 0.569164 9.41042 0.222275 8.00031 0.222275C6.5902 0.222275 5.2882 0.569164 4.09587 1.2645ZM1.51365 8.00005C1.51365 6.4445 2.01142 5.06628 3.0062 3.86228C3.91931 4.57783 4.67065 5.64028 5.26176 7.05116C3.85165 7.8305 2.67409 8.67516 1.73065 9.5875C1.58598 9.05705 1.51365 8.52972 1.51365 8.00005ZM3.95587 13.0478C3.21931 12.4614 2.64453 11.7598 2.2292 10.9393C3.16331 9.99661 4.3292 9.13094 5.7292 8.3415C6.19587 9.89705 6.4292 11.5413 6.4292 13.2734C6.4292 13.7191 6.41909 14.0558 6.39809 14.2845C5.50598 14.0457 4.69242 13.6335 3.95587 13.0478ZM8.00031 14.4867C7.95831 14.4867 7.90698 14.4844 7.84476 14.4789C7.78253 14.4735 7.7312 14.4712 7.6892 14.4712C7.70009 14.2736 7.70476 13.9726 7.70476 13.5682C7.70476 11.4946 7.41931 9.56572 6.8492 7.78228C7.13931 7.63683 7.46598 7.48594 7.8292 7.33116C8.05709 8.35783 8.61165 9.41094 9.49365 10.4897C10.3756 11.5685 11.3035 12.3556 12.2781 12.8534C11.0438 13.9423 9.61809 14.4867 8.00031 14.4867ZM14.487 8.00005C14.487 9.47316 14.0304 10.7954 13.1189 11.9675C12.1956 11.5001 11.3129 10.7822 10.4736 9.81228C9.63365 8.84316 9.1102 7.88105 8.90253 6.92672C10.5615 6.32628 12.2773 5.92105 14.0514 5.71339C14.3415 6.47094 14.487 7.23316 14.487 8.00005ZM11.407 2.49339C12.2361 3.01139 12.9159 3.68027 13.4455 4.50005C11.8278 4.68672 10.2512 5.0445 8.71587 5.57261C8.66453 4.84772 8.63809 4.19983 8.63809 3.62816C8.63809 3.00672 8.66453 2.31683 8.71587 1.56005C9.68031 1.66427 10.5771 1.97539 11.407 2.49339ZM7.51809 3.45783C7.51809 4.36005 7.55465 5.19461 7.62698 5.96228C7.11909 6.15983 6.69909 6.33561 6.36698 6.49116C5.66231 4.88428 4.80676 3.74405 3.80031 3.06972C4.90009 2.13639 6.15464 1.62772 7.56476 1.54527C7.53365 2.17683 7.51809 2.81461 7.51809 3.45783Z" fill="#141313"/>
</svg>
