<svg width="16" height="16" viewBox="0 0 16 16" fill="none" xmlns="http://www.w3.org/2000/svg">
<path d="M4.72364 0.508653C3.91011 0.544522 3.35081 0.67608 2.86618 0.864537C2.35174 1.05895 1.89118 1.35805 1.5083 1.74992C1.11947 2.1328 0.817332 2.5964 0.625954 3.10488C0.437497 3.59232 0.305939 4.14869 0.27007 4.96222C0.231164 5.78183 0.222168 6.04203 0.222168 8.12078C0.222168 10.1995 0.231164 10.4597 0.267033 11.2763C0.302902 12.0898 0.434576 12.6491 0.622917 13.1336C0.817333 13.6482 1.11643 14.1088 1.5083 14.4916C1.89118 14.8805 2.35478 15.1825 2.86326 15.374C3.35081 15.5624 3.90707 15.694 4.7206 15.7299C5.54021 15.7688 5.80041 15.7778 7.87916 15.7778C9.95791 15.7778 10.2181 15.7688 11.0347 15.7329C11.8482 15.697 12.4075 15.5654 12.8921 15.3769C13.4066 15.1825 13.8671 14.8805 14.25 14.4916C14.6388 14.1088 14.941 13.6452 15.1324 13.1367C15.3208 12.6491 15.4524 12.0929 15.4882 11.2792C15.5242 10.4628 15.5331 10.2025 15.5331 8.1237C15.5331 6.04495 15.5242 5.78475 15.4882 4.96818C15.4524 4.15465 15.3208 3.59535 15.1324 3.11083C14.7345 2.08185 13.921 1.26832 12.8921 0.870495C12.4046 0.682155 11.8482 0.55048 11.0347 0.514611C10.2181 0.478743 9.95791 0.469746 7.87916 0.469746C5.80041 0.469746 5.54021 0.472784 4.72364 0.508653ZM10.9749 1.88744C11.7226 1.92039 12.1264 2.04599 12.3956 2.15067C13.0626 2.40795 13.592 2.93733 13.8493 3.60435C13.954 3.87354 14.0796 4.28025 14.1124 5.02508C14.1484 5.83265 14.1572 6.07486 14.1572 8.11774C14.1572 10.1606 14.1484 10.4059 14.1124 11.2105C14.0796 11.9583 13.954 12.3621 13.8493 12.6312C13.7266 12.9632 13.5322 13.2653 13.2779 13.5106C13.0297 13.7648 12.7306 13.9592 12.3986 14.0819C12.1294 14.1866 11.7226 14.3122 10.9779 14.345C10.1703 14.381 9.928 14.3899 7.88512 14.3899C5.84223 14.3899 5.59699 14.381 4.79246 14.345C4.04471 14.3122 3.64092 14.1866 3.37173 14.0819C3.03968 13.9592 2.73766 13.7648 2.4923 13.5075C2.23806 13.2594 2.04365 12.9603 1.92109 12.6282C1.8164 12.359 1.6908 11.9522 1.65785 11.2075C1.62198 10.3999 1.61299 10.1576 1.61299 8.11482C1.61299 6.0689 1.62198 5.8267 1.65785 5.02204C1.6908 4.27429 1.8164 3.8705 1.92109 3.60131C2.04365 3.26938 2.23806 2.96724 2.4923 2.722C2.74058 2.46777 3.03968 2.27335 3.37173 2.15067C3.64092 2.04599 4.04763 1.92039 4.79246 1.88744C5.60003 1.85157 5.84223 1.84257 7.88512 1.84257C9.928 1.84257 10.1673 1.85157 10.9749 1.88744Z" fill="#141313"/>
<path d="M3.94617 8.12151C3.94617 10.2929 5.70783 12.0547 7.87935 12.0547C10.0509 12.0547 11.8125 10.2929 11.8125 8.12151C11.8125 5.94998 10.0509 4.18833 7.87935 4.18833C5.70783 4.18833 3.94617 5.94999 3.94617 8.12151ZM10.4307 8.12151C10.4307 9.5302 9.28816 10.6729 7.87935 10.6729C6.47053 10.6729 5.32799 9.5302 5.32799 8.12151C5.32799 6.71269 6.47053 5.57015 7.87935 5.57015C9.28816 5.57015 10.4307 6.71269 10.4307 8.12151V8.12151Z" fill="#141313"/>
<path d="M3.79023 3.11442C4.29721 3.11442 4.70828 3.52549 4.70828 4.03258C4.70828 4.53955 4.29721 4.95062 3.79023 4.95062C3.28314 4.95062 2.87219 4.53955 2.87219 4.03258C2.87219 3.52549 3.28314 3.11442 3.79023 3.11442V3.11442Z" fill="#141313"/>
</svg>
