<svg width="19" height="15" viewBox="0 0 19 15" fill="none" xmlns="http://www.w3.org/2000/svg">
<path fill-rule="evenodd" clip-rule="evenodd" d="M3.49465 0.634521C2.0694 0.634521 0.914001 1.78992 0.914001 3.21517V11.8173C0.914001 13.2426 2.0694 14.398 3.49465 14.398H15.5377C16.9629 14.398 18.1183 13.2426 18.1183 11.8173V3.21517C18.1183 1.78992 16.9629 0.634521 15.5377 0.634521H3.49465ZM2.71298 2.85554C2.84915 2.56006 3.14795 2.35495 3.49465 2.35495H15.5377C15.8844 2.35495 16.1831 2.56006 16.3193 2.85554L10.0443 7.73614C9.73364 7.97774 9.29866 7.97774 8.98803 7.73614L2.71298 2.85554ZM2.63443 4.974V9.98072L5.74205 7.39104L2.63443 4.974ZM2.70574 12.1608C2.83834 12.4649 3.14167 12.6775 3.49465 12.6775H15.5377C15.8906 12.6775 16.194 12.4649 16.3266 12.1608L11.9002 8.47217L11.1005 9.09416C10.1686 9.81897 8.86369 9.81897 7.93179 9.09416L7.13209 8.47217L2.70574 12.1608ZM16.3979 9.98072V4.974L13.2902 7.39104L16.3979 9.98072Z" fill="#141313"/>
</svg>
