<svg width="15" height="16" viewBox="0 0 15 16" fill="none" xmlns="http://www.w3.org/2000/svg">
<path fill-rule="evenodd" clip-rule="evenodd" d="M1.4335 2.00348C2.9452 0.491777 5.39617 0.491777 6.90787 2.00348C8.41958 3.51519 8.41958 5.96615 6.90787 7.47786C6.34518 8.04055 5.65236 8.39379 4.92629 8.53759L7.06467 10.676C7.20847 9.9499 7.56171 9.25707 8.1244 8.69439C9.63611 7.18268 12.0871 7.18268 13.5988 8.69439C15.1105 10.2061 15.1105 12.6571 13.5988 14.1688C12.1899 15.5777 9.9651 15.6735 8.44524 14.4562L8.42853 14.4729L8.1244 14.1688L1.4335 7.47786L1.12937 7.17373L1.14607 7.15702C-0.0712185 5.63715 0.0245902 3.41239 1.4335 2.00348ZM9.34093 12.9522C10.1808 13.7921 11.5424 13.7921 12.3822 12.9522C13.2221 12.1124 13.2221 10.7508 12.3822 9.91091C11.5424 9.07108 10.1808 9.07108 9.34093 9.91091C8.50109 10.7508 8.50109 12.1124 9.34093 12.9522ZM5.69134 6.26133C4.85151 7.10117 3.48986 7.10117 2.65003 6.26133C1.81019 5.42149 1.81019 4.05985 2.65003 3.22001C3.48986 2.38017 4.85151 2.38017 5.69134 3.22001C6.53118 4.05985 6.53118 5.42149 5.69134 6.26133Z" fill="#141313"/>
</svg>
