<svg width="200" height="113" viewBox="0 0 200 113" fill="none" xmlns="http://www.w3.org/2000/svg">
<path d="M91.4077 80.7214C91.29 80.8611 91.1625 80.8312 91.0546 80.8212C90.5935 80.8212 90.1227 80.8112 89.6617 80.7912C87.0819 80.6415 84.512 80.5816 81.9322 80.6415C80.0097 80.6814 78.0871 80.7613 76.1645 80.8711C73.6927 81.0208 71.2306 81.2104 68.7588 81.3901C66.6891 81.5398 64.6096 81.7195 62.5399 81.8592C60.7743 81.979 59.0087 82.0588 57.2431 82.1586C56.9684 82.1786 56.6938 82.1886 56.4289 82.2484C55.6834 82.4081 55.0557 82.7974 54.5652 83.3962C54.3985 83.5959 54.2513 83.8154 54.1042 84.025C50.3474 89.4147 46.2374 94.495 41.686 99.2159C39.5183 101.462 37.2034 103.558 34.7315 105.464C32.2106 107.41 29.5033 109.017 26.5901 110.265C24.2457 111.263 21.8033 111.872 19.2628 112.111C15.81 112.441 12.475 111.912 9.238 110.704C8.11978 110.295 7.03098 109.816 5.97162 109.277C4.43161 108.498 3.08778 107.44 1.94013 106.143C0.812102 104.855 0.125475 103.348 0.00776764 101.611C-0.0216592 101.202 0.0371945 100.773 0.105857 100.364C0.292228 99.2259 0.694395 98.1779 1.30255 97.2098C2.41096 95.4332 3.81365 93.966 5.49098 92.7583C8.31596 90.7322 11.3665 89.1352 14.5839 87.8776C18.017 86.5302 21.5384 85.4623 25.1285 84.6239C28.1889 83.9053 31.2787 83.3064 34.3882 82.8173C36.4775 82.488 38.5668 82.1786 40.6659 81.9091C42.7454 81.6496 44.8347 81.44 46.9142 81.2204C48.0913 81.1006 49.2782 81.0108 50.4553 80.901C50.7495 80.8711 51.034 80.8411 51.3184 80.7713C52.1816 80.5617 52.8977 80.0926 53.4372 79.374C53.6236 79.1244 53.7903 78.8649 53.9571 78.5954C56.6938 74.2737 59.2343 69.8322 61.6767 65.3309C65.8651 57.6257 69.6808 49.7408 73.1336 41.6762C75.6349 35.8374 77.9007 29.9088 79.8037 23.8404C80.8434 20.5268 81.736 17.1632 82.3736 13.7398C82.5796 12.6619 82.7562 11.574 82.8935 10.4761C83.0602 9.16857 82.9818 7.85109 82.7169 6.56356C82.5992 5.97469 82.3932 5.42575 82.1088 4.89676C81.4025 3.52938 80.2353 2.78082 78.7345 2.54128C77.8517 2.40154 76.9885 2.50135 76.1253 2.69099C73.7319 3.23994 71.4464 4.09829 69.2198 5.10636C66.0907 6.52364 63.0794 8.1605 60.1367 9.94708C52.4072 14.6381 45.2173 20.0777 38.6158 26.3057C35.2514 29.4696 32.1517 32.8831 29.4248 36.6359C27.9731 38.6221 26.698 40.7081 25.6876 42.9638C24.9716 44.5807 24.3928 46.2375 24.0593 47.9841C23.8828 48.9223 23.8534 49.8605 24.0692 50.7987C24.2948 51.8168 24.7852 52.6851 25.5209 53.4037C26.0604 53.9327 26.6685 54.3619 27.3453 54.6713C28.8167 55.34 30.3567 55.7393 31.9654 55.879C32.9953 55.9688 34.0252 55.9089 35.0552 55.8291C36.8012 55.6993 38.5374 55.4598 40.2637 55.1105C41.1073 54.9408 41.9509 54.7711 42.7945 54.6514C44.0108 54.4817 45.2271 54.4617 46.4434 54.6114C47.0123 54.6813 47.1987 55.1205 46.8652 55.5796C46.7475 55.7493 46.5709 55.8091 46.3747 55.8291C46.0707 55.869 45.7568 55.899 45.4527 55.9289C43.6773 56.1086 41.9117 56.388 40.146 56.7174C38.1842 57.0767 36.2028 57.3162 34.2116 57.456C32.7305 57.5658 31.2591 57.5059 29.7878 57.2963C28.7284 57.1466 27.6887 56.917 26.6783 56.5876C25.6092 56.2383 24.6086 55.7293 23.7062 55.0406C21.5973 53.4437 20.6949 51.2878 20.9303 48.6429C21.0382 47.4851 21.3325 46.3772 21.666 45.2693C22.382 42.9139 23.4414 40.7281 24.7067 38.6321C26.0309 36.4363 27.5611 34.3902 29.1796 32.414C31.73 29.29 34.5353 26.4055 37.5172 23.7007C43.8833 17.9118 50.7593 12.8415 58.1259 8.45993C61.3334 6.55358 64.6194 4.80693 68.0427 3.32976C70.1222 2.43149 72.2312 1.65298 74.4284 1.12399C74.9973 0.984262 75.5662 0.854511 76.1449 0.774664C77.9007 0.535123 79.6369 0.575047 81.3633 1.04415C84.5022 1.88254 85.8068 4.25798 86.1599 6.59351C86.3659 7.98085 86.3462 9.38815 86.2285 10.7855C86.0127 13.4404 85.4438 16.0354 84.7768 18.6105C83.5213 23.4312 81.9126 28.1422 80.1372 32.7833C77.0768 40.7879 73.5848 48.603 69.8574 56.3082C67.415 61.3385 64.8646 66.319 62.1475 71.2096C60.9214 73.4154 59.6561 75.6012 58.2926 77.7271C58.0082 78.1663 57.7433 78.6154 57.4687 79.0645C57.4 79.1843 57.3215 79.3041 57.2823 79.4338C57.1842 79.7931 57.3902 80.1125 57.7531 80.1624C57.8905 80.1824 58.0278 80.1824 58.1651 80.1724C58.7831 80.1525 59.401 80.1325 60.019 80.1026C61.6375 80.0227 63.2461 79.9528 64.8646 79.863C66.4439 79.7832 68.0231 79.6734 69.6024 79.6135C72.6235 79.5037 75.6447 79.3839 78.6756 79.324C81.3437 79.2741 84.0019 79.4338 86.6503 79.7532C87.9647 79.9129 89.2791 80.0826 90.5641 80.392C90.7995 80.4519 91.0251 80.5217 91.2605 80.6016C91.3096 80.6216 91.3488 80.6814 91.4077 80.7214ZM50.6318 82.987C50.21 82.9072 49.2389 82.9072 48.7681 82.977C46.7377 83.2465 44.717 83.516 42.6866 83.7755C41.4212 83.9352 40.1657 84.0749 38.9003 84.2346C36.4481 84.554 34.0056 84.9732 31.573 85.4323C28.0516 86.0911 24.5792 86.9195 21.1657 87.9775C18.9979 88.6462 16.8399 89.3648 14.7506 90.2731C12.3671 91.3011 10.111 92.5487 8.0315 94.1257C6.88385 95.004 5.86372 96.0021 4.96129 97.1399C4.40218 97.8385 3.94116 98.5871 3.61747 99.4255C2.97007 101.112 3.13683 102.719 4.0981 104.226C4.51008 104.875 5.00053 105.464 5.58907 105.953C6.11875 106.392 6.65824 106.831 7.21735 107.241C8.69851 108.308 10.2974 109.157 12.0434 109.686C14.3583 110.394 16.7124 110.434 19.0862 110.075C21.0382 109.786 22.8921 109.177 24.6871 108.338C27.2767 107.131 29.6995 105.644 31.9654 103.887C34.6236 101.831 37.0856 99.5453 39.4398 97.1399C41.7547 94.7644 43.9225 92.2592 45.9922 89.6742C47.2281 88.1272 48.4052 86.5402 49.6117 84.9632C49.9942 84.4642 50.2885 83.9152 50.5337 83.3364C50.573 83.2166 50.5926 83.1068 50.6318 82.987Z" fill="#141313"/>
<path d="M200 91.0125C199.804 91.0723 199.598 91.0624 199.402 91.0524C198.1 91.0324 196.797 91.0125 195.494 90.9726C194.123 90.9327 192.752 90.8728 191.381 90.8129C189.824 90.7331 188.267 90.6533 186.7 90.5535C184.418 90.4039 182.146 90.2443 179.873 90.0647C178.13 89.925 176.387 89.7554 174.644 89.5858C173.223 89.4461 171.813 89.2965 170.393 89.1269C168.738 88.9173 167.093 88.6978 165.447 88.4584C162.019 87.9596 158.601 87.361 155.193 86.7224C152.931 86.2934 150.678 85.8545 148.416 85.4255C145.919 84.9565 143.411 84.5375 140.894 84.1983C138.838 83.919 136.781 83.6695 134.714 83.4201C132.129 83.1108 129.534 82.8115 126.948 82.5122C126.625 82.4723 126.292 82.4524 125.978 82.3925C125.743 82.3426 125.587 82.4324 125.43 82.5821C125.058 82.9612 124.666 83.3403 124.284 83.7094C121.268 86.6626 118.261 89.6357 115.225 92.5788C112.208 95.4921 109.123 98.3155 105.872 100.959C104.021 102.466 102.121 103.903 100.084 105.15C97.9879 106.437 95.7647 107.434 93.3946 108.073C92.2585 108.372 91.1127 108.562 89.9374 108.462C88.39 108.332 87.156 107.644 86.2452 106.357C85.5498 105.369 85.1777 104.252 84.9818 103.064C84.7076 101.398 84.8153 99.7522 85.1483 98.116C85.6575 95.5918 86.6369 93.2473 87.9395 91.0424C89.4771 88.4385 91.3673 86.1538 93.7374 84.2981C95.3142 83.0609 97.0281 82.0832 98.9575 81.5345C99.9662 81.2452 100.995 81.0357 102.023 80.8561C103.296 80.6266 104.569 80.467 105.852 80.3672C107.047 80.2774 108.252 80.2275 109.456 80.2774C111.356 80.3672 113.266 80.3074 115.166 80.1777C116.488 80.0879 117.801 79.9981 119.123 80.0779C119.554 80.1078 119.975 80.1377 120.406 80.1976C121.796 80.3872 122.942 79.9482 123.814 78.8108C126.684 75.0795 129.445 71.2684 131.884 67.2278C132.413 66.3498 132.893 65.4419 133.402 64.544C133.5 64.3644 133.608 64.1848 133.715 64.0052C136.536 59.2862 139.357 54.5672 142.197 49.8681C143.96 46.9449 145.556 43.9319 147.113 40.8989C149.503 36.2298 151.736 31.4908 153.724 26.6321C155.174 23.0804 156.447 19.4588 157.436 15.7474C157.661 14.8994 157.867 14.0513 158.043 13.2033C158.308 11.9462 158.337 10.6692 158.2 9.39218C158.131 8.80354 157.994 8.22489 157.759 7.67616C157.093 6.05992 155.879 5.14205 154.214 4.81282C153.274 4.62326 152.343 4.71305 151.403 4.85273C148.915 5.22187 146.506 5.93022 144.146 6.76827C140.581 8.03533 137.124 9.59171 133.745 11.3077C127.017 14.7198 120.631 18.7005 114.588 23.2599C113.276 24.2476 112.062 25.3651 110.886 26.5124C109.633 27.7296 108.408 28.9767 107.155 30.1938C106.146 31.1716 105.118 32.1194 104.089 33.0671C103.776 33.3565 103.423 33.6159 103.071 33.8553C102.797 34.0349 102.503 34.1945 102.199 34.3043C101.563 34.5337 100.985 34.3941 100.475 33.9451C100.446 33.9252 100.427 33.8952 100.397 33.8753C99.7703 33.2667 99.6822 32.7678 100.103 31.9996C100.319 31.6105 100.593 31.2414 100.877 30.8922C101.533 30.0841 102.297 29.3757 103.081 28.6873C104.324 27.5899 105.627 26.5523 106.959 25.5646C111.366 22.2922 115.842 19.0996 120.435 16.1066C126.772 11.9762 133.461 8.54415 140.493 5.83045C142.785 4.94252 145.125 4.1743 147.515 3.6156C149.023 3.25644 150.541 3.00702 152.089 2.88729C152.843 2.82743 153.597 2.88729 154.351 2.96711C155.448 3.07685 156.515 3.33625 157.544 3.75528C159.542 4.58335 160.825 6.04994 161.373 8.175C161.53 8.78359 161.618 9.40215 161.637 10.0407C161.686 11.8165 161.442 13.5625 161.079 15.2885C160.56 17.7527 159.777 20.1372 158.925 22.5017C157.426 26.662 155.673 30.7026 153.773 34.6834C150.522 41.5175 146.947 48.1621 143.157 54.6969C139.886 60.3437 136.477 65.9008 132.863 71.3282C131.218 73.8025 129.494 76.2268 127.692 78.5814C127.555 78.7609 127.418 78.9405 127.291 79.1301C127.007 79.5691 127.085 80.028 127.526 80.3073C127.692 80.4171 127.888 80.5169 128.084 80.5568C128.554 80.6665 129.024 80.7862 129.494 80.8361C130.581 80.9658 131.678 81.0556 132.775 81.1753C133.461 81.2452 134.137 81.3449 134.822 81.4148C135.331 81.4746 135.841 81.5345 136.36 81.5644C137.731 81.6542 139.092 81.8438 140.444 82.0533C142.696 82.4125 144.949 82.7816 147.201 83.1607C149.523 83.5498 151.834 83.9688 154.145 84.3679C156.682 84.8069 159.218 85.2559 161.755 85.6849C164.39 86.1338 167.034 86.5828 169.678 87.0018C172.087 87.3909 174.497 87.7501 176.906 88.0992C179.08 88.4185 181.254 88.7078 183.429 88.9972C184.996 89.2067 186.563 89.3862 188.13 89.5559C190.402 89.8053 192.674 90.0248 194.936 90.2642C196.317 90.4139 197.698 90.5635 199.079 90.7132C199.334 90.7431 199.588 90.783 199.843 90.8229C199.892 90.8628 199.98 90.8728 200 91.0125ZM120.2 82.2927C120.151 82.2628 120.122 82.2229 120.092 82.2229C119.515 82.173 118.927 82.0832 118.349 82.1032C115.127 82.193 111.905 82.3227 108.683 82.4324C106.9 82.4923 105.118 82.612 103.355 82.8614C101.837 83.0809 100.348 83.4101 98.9085 83.9389C96.5286 84.8069 94.4327 86.1238 92.6993 88.0194C91.3575 89.4661 90.241 91.0723 89.4086 92.8781C88.341 95.1628 87.5673 97.5473 87.3225 100.081C87.2343 100.959 87.2637 101.827 87.4792 102.685C87.8709 104.292 88.9189 105.229 90.525 105.449C91.2792 105.559 92.0333 105.499 92.7776 105.379C94.2075 105.15 95.559 104.651 96.9106 104.132C98.1348 103.653 99.2709 103.005 100.319 102.216C100.515 102.067 100.711 101.937 100.897 101.777C101.896 100.929 102.934 100.111 103.894 99.2234C106.91 96.4199 109.917 93.6064 112.894 90.763C115.078 88.6879 117.066 86.4132 119.044 84.1384C119.446 83.6795 119.779 83.1707 120.073 82.6319C120.122 82.5122 120.151 82.4025 120.2 82.2927Z" fill="#141313"/>
<path d="M180.843 70.4365C180.735 70.1576 180.647 69.9186 180.559 69.6696C180.206 68.7035 180.059 67.7176 180.166 66.6918C180.235 66.0544 180.451 65.4767 180.814 64.9489C181.167 64.431 181.627 64.0525 182.216 63.8334C183.294 63.445 184.393 63.3653 185.51 63.6741C186.344 63.9031 186.913 64.4509 187.285 65.2277C187.472 65.6161 187.413 65.9249 187.128 66.2336C186.805 66.5722 186.491 66.6619 186.109 66.4926C185.854 66.383 185.618 66.2436 185.432 66.0245C185.295 65.8651 185.148 65.7157 185.01 65.5663C184.844 65.3871 184.648 65.2476 184.412 65.158C183.932 64.9787 183.441 65.1182 183.098 65.5066C182.912 65.7257 182.804 65.9747 182.716 66.2436C182.451 67.0901 182.49 67.9367 182.794 68.7633C183.079 69.5501 183.412 70.3169 183.726 71.0938C183.785 71.2332 183.873 71.3726 183.961 71.5021C184.108 71.7312 184.324 71.8108 184.589 71.7411C184.775 71.6913 184.952 71.6316 185.128 71.5619C186.991 70.8348 188.844 70.1078 190.707 69.3808C190.884 69.3111 191.06 69.2413 191.247 69.1915C191.364 69.1617 191.482 69.1517 191.6 69.1617C191.796 69.1716 191.913 69.3011 191.943 69.4903C191.982 69.7791 191.933 70.048 191.815 70.307C191.776 70.3867 191.678 70.4564 191.59 70.4962C191.355 70.6058 191.109 70.6954 190.874 70.795C189.354 71.4324 187.825 72.0798 186.383 72.8964C186.118 73.0458 185.854 73.2251 185.599 73.3944C185.216 73.6533 185.059 74.0119 185.197 74.48C185.295 74.7986 185.373 75.1173 185.501 75.4261C185.844 76.2925 186.04 77.1889 186.118 78.1151C186.197 79.0812 185.883 79.8978 185.187 80.5651C184.844 80.8938 184.461 81.1527 184.049 81.3619C183.343 81.7304 182.598 81.9893 181.824 82.1785C180.725 82.4574 179.608 82.6765 178.48 82.786C177.813 82.8458 177.146 82.8458 176.48 82.7163C175.852 82.5968 175.313 82.318 174.862 81.8598C174.293 81.2722 174.136 80.5751 174.362 79.7883C174.489 79.3501 174.705 78.9517 174.979 78.5832C175.323 78.1051 175.734 77.6769 176.195 77.3084C176.695 76.91 177.215 76.5316 177.735 76.1631C178.627 75.5356 179.519 74.9281 180.412 74.2907C180.706 74.0816 180.98 73.8426 181.235 73.5836C181.569 73.245 181.706 72.8167 181.578 72.3387C181.569 72.2889 181.529 72.2491 181.49 72.1694C181.422 72.2291 181.353 72.2789 181.314 72.3387C180.363 73.6732 179.166 74.7289 177.784 75.5854C176.98 76.0934 176.146 76.5515 175.254 76.8802C173.205 77.647 171.106 77.8163 168.978 77.2586C168.498 77.1291 168.027 76.9598 167.596 76.7009C166.733 76.183 166.184 75.446 166.037 74.4202C166.017 74.3007 165.988 74.1812 165.958 74.0218C165.841 74.0816 165.752 74.1115 165.674 74.1712C164.37 75.0676 162.977 75.7846 161.565 76.4519C160.761 76.8304 159.918 76.9299 159.045 76.8403C158.908 76.8304 158.771 76.7905 158.643 76.7606C158.094 76.6212 157.751 76.2627 157.594 75.7149C157.457 75.2169 157.486 74.709 157.535 74.2111C157.614 73.3546 157.839 72.5379 158.173 71.7411C158.33 71.3527 158.467 70.9643 158.604 70.5659C158.663 70.3667 158.722 70.1576 158.585 69.9684C158.339 69.8787 158.133 69.9883 157.947 70.0978C157.545 70.3269 157.133 70.556 156.761 70.8348C156.094 71.3228 155.427 71.8208 154.78 72.3387C153.456 73.4043 152.221 74.5596 151.044 75.7846C150.877 75.9639 150.721 76.1432 150.554 76.3224C150.132 76.7806 149.613 77.0694 148.995 77.159C148.701 77.1989 148.406 77.159 148.151 76.9997C147.73 76.7308 147.602 76.3423 147.818 75.8743C147.946 75.5854 148.093 75.3165 148.24 75.0377C149.407 72.7669 150.573 70.4863 151.74 68.2155C151.819 68.0562 151.897 67.9068 151.985 67.7574C152.26 67.3291 152.642 67.0702 153.113 66.9009C153.78 66.6519 154.407 67.3789 154.329 67.9168C154.3 68.1359 154.221 68.355 154.152 68.5741C154.064 68.843 153.956 69.092 153.868 69.3609C153.819 69.4903 153.79 69.6298 153.77 69.7692C153.75 69.8787 153.76 69.9983 153.868 70.0381C153.937 70.068 154.045 70.058 154.113 70.0281C154.27 69.9584 154.417 69.8588 154.564 69.7692C155.211 69.3708 155.839 68.9525 156.496 68.5741C157.035 68.2653 157.584 67.9765 158.153 67.7275C158.741 67.4686 159.359 67.3092 160.006 67.3391C160.055 67.3391 160.114 67.3391 160.163 67.3491C161.301 67.4287 161.948 68.2155 161.83 69.3509C161.801 69.6596 161.722 69.9783 161.614 70.2672C161.281 71.1436 160.918 72.01 160.565 72.8865C160.497 73.0657 160.428 73.245 160.369 73.4243C160.31 73.6434 160.301 73.8724 160.359 74.0915C160.448 74.3804 160.585 74.4999 160.889 74.48C161.056 74.47 161.232 74.4401 161.389 74.3903C161.732 74.2708 162.066 74.1513 162.399 74.0019C163.742 73.3944 164.968 72.5976 166.194 71.7909C166.36 71.6814 166.488 71.5519 166.547 71.3627C166.576 71.2631 166.625 71.1735 166.664 71.0739C167.164 69.9385 167.88 68.9724 168.841 68.1956C170.292 67.0304 171.91 66.2834 173.773 66.134C174.254 66.0942 174.734 66.0942 175.215 66.1042C175.577 66.1141 175.93 66.1938 176.254 66.383C177.048 66.8511 177.411 67.6678 177.186 68.5641C177.117 68.8529 176.999 69.1318 176.862 69.3808C175.881 71.0739 174.469 72.0798 172.499 72.1993C171.616 72.2491 170.743 72.2192 169.88 72.0598C169.812 72.0499 169.743 72.0399 169.675 72.03C169.233 71.9702 168.929 72.1395 168.802 72.5578C168.665 73.0259 168.616 73.5139 168.694 74.0119C168.812 74.6692 169.184 75.1173 169.782 75.3763C170.351 75.6253 170.959 75.7647 171.577 75.8145C172.371 75.8743 173.156 75.7946 173.92 75.5655C174.93 75.2667 175.872 74.7987 176.754 74.2111C177.519 73.7031 178.215 73.1155 178.872 72.4682C179.49 71.8606 180.108 71.2531 180.716 70.6456C180.725 70.5759 180.774 70.5161 180.843 70.4365ZM178.598 80.5551C179.764 80.5352 180.882 80.3062 181.961 79.848C182.902 79.4497 183.304 78.7625 183.196 77.7367C183.157 77.3781 183.108 77.0096 183.039 76.6511C183 76.4519 182.941 76.2428 182.863 76.0535C182.686 75.6153 182.461 75.5157 182.01 75.6651C181.833 75.7249 181.657 75.8045 181.5 75.9041C179.97 76.8403 178.549 77.9358 177.254 79.1907C177.107 79.3302 176.98 79.4995 176.862 79.6688C176.656 79.9476 176.764 80.3659 177.186 80.3958C177.646 80.4456 178.117 80.5053 178.598 80.5551ZM171.92 70.6157C172.655 70.6058 173.371 70.3468 173.94 69.7493C174.264 69.4106 174.43 69.0023 174.44 68.5243C174.45 68.0163 174.215 67.7972 173.714 67.8172C173.616 67.8271 173.509 67.8371 173.41 67.867C172.381 68.106 171.489 68.6039 170.724 69.331C170.636 69.4107 170.557 69.5102 170.498 69.6098C170.312 69.9186 170.361 70.1178 170.675 70.297C171.038 70.5261 171.43 70.6157 171.92 70.6157Z" fill="#141313"/>
<path d="M93.8959 74.683C93.7194 74.7922 93.5528 74.8915 93.3959 74.9907C91.4056 76.2316 89.2486 76.996 86.925 77.2541C86.3269 77.3235 85.7288 77.3533 85.1308 77.3831C84.1797 77.4228 83.2483 77.2739 82.3365 76.9761C81.2874 76.6386 80.4149 76.0628 79.8658 75.0602C79.8462 75.0205 79.807 74.9808 79.7678 74.9212C79.6599 75.0007 79.5815 75.0702 79.503 75.1297C79.1011 75.4573 78.7089 75.7948 78.2971 76.1025C77.1304 76.986 75.797 77.393 74.3655 77.5022C74.1106 77.5221 73.8459 77.5122 73.591 77.4725C72.738 77.3533 72.1301 76.8967 71.787 76.0926C71.6105 75.6757 71.5223 75.229 71.483 74.7823C71.4732 74.683 71.4634 74.5937 71.4438 74.4646C71.2281 74.5142 71.1301 74.6631 71.0026 74.7723C70.3555 75.3382 69.7084 75.9139 69.0515 76.4798C68.6594 76.8173 68.2084 77.0853 67.7476 77.3136C66.6201 77.8596 65.4337 78.0581 64.1886 77.9092C63.8062 77.8596 63.4434 77.7703 63.1101 77.5717C62.512 77.2243 62.1885 76.7081 62.159 76.0033C62.1394 75.5069 62.2571 75.0404 62.4434 74.5837C62.9924 73.184 63.7278 71.8935 64.6886 70.7321C65.9534 69.2034 67.4828 68.0121 69.1692 67.0195C69.6006 66.7713 70.0418 66.533 70.4928 66.3146C71.434 65.858 72.4145 65.7091 73.4537 65.8679C74.14 65.9771 74.6302 66.3444 74.895 66.9897C75.0126 67.2776 75.0911 67.5853 75.1499 67.893C75.2479 68.4688 74.7871 69.0148 74.2185 69.0346C73.8459 69.0445 73.5027 68.975 73.2772 68.6177C73.2086 68.4986 73.1008 68.4092 72.9929 68.3099C72.6792 68.0221 72.3262 67.9129 71.9046 68.0717C71.5124 68.2107 71.1399 68.3794 70.7869 68.6078C68.3652 70.1067 66.6004 72.1814 65.4533 74.8021C65.3945 74.9411 65.3357 75.09 65.3063 75.2488C65.267 75.497 65.3847 75.636 65.6396 75.6757C65.8651 75.7055 66.0808 75.6459 66.2965 75.5665C66.6495 75.4275 66.973 75.229 67.2671 74.9907C67.6789 74.6532 68.0907 74.3157 68.4829 73.9484C69.3849 73.1146 70.2771 72.2708 71.1693 71.427C71.3556 71.2483 71.5321 71.0597 71.7183 70.881C72.0713 70.5336 72.5027 70.3251 72.9831 70.2159C73.3067 70.1464 73.6302 70.1563 73.9439 70.2755C74.3263 70.4144 74.542 70.6825 74.5714 71.0895C74.5812 71.3079 74.5616 71.5362 74.5224 71.7645C74.4734 72.0226 74.3851 72.2708 74.3263 72.5189C74.2087 73.0252 74.0812 73.5315 74.0028 74.0477C73.9537 74.3356 73.9537 74.6334 73.9734 74.9312C74.0028 75.368 74.2185 75.6062 74.6401 75.6757C74.8558 75.7154 75.0911 75.6955 75.3068 75.6658C75.8068 75.5863 76.2578 75.3878 76.699 75.1297C77.2088 74.8319 77.6598 74.4646 78.0814 74.0477C78.4736 73.6506 78.8363 73.2436 79.2285 72.8565C79.4442 72.6381 79.5619 72.3899 79.6305 72.0921C79.954 70.6725 80.6011 69.4218 81.562 68.3397C82.7679 66.9996 84.1896 65.997 85.9543 65.5602C87.0524 65.2822 88.1603 65.2525 89.2584 65.5999C89.6702 65.729 90.0036 65.9573 90.2095 66.3444C90.4153 66.7216 90.3565 66.9897 90.0036 67.2478C89.7388 67.4463 89.4447 67.5059 89.131 67.4066C88.9839 67.357 88.8466 67.2974 88.6996 67.2378C87.8466 66.9003 87.0132 66.94 86.2191 67.4165C85.9543 67.5754 85.6994 67.754 85.4543 67.9526C84.4739 68.7368 83.6797 69.6997 82.9934 70.752C82.5522 71.427 82.2385 72.1516 82.0718 72.9458C81.9247 73.6804 82.1306 74.2859 82.6601 74.7922C82.915 75.0304 83.1993 75.219 83.5228 75.3481C84.4739 75.7352 85.4445 75.8246 86.4544 75.5963C89.0819 75.0205 91.5232 73.9881 93.7783 72.4991C94.0038 72.3502 94.2391 72.1914 94.4744 72.0524C94.7195 71.9035 94.896 71.7049 95.0332 71.4568C95.5627 70.5336 96.1901 69.6898 96.9451 68.9353C97.151 68.7269 97.3765 68.5383 97.602 68.3497C98.0628 67.9824 98.5726 67.7838 99.1609 67.7441C99.4942 67.7243 99.8178 67.7342 100.112 67.8831C100.426 68.0419 100.71 67.9923 101.004 67.8533C101.024 67.8434 101.034 67.8434 101.053 67.8335C101.926 67.2974 102.896 67.2776 103.857 67.3768C105.22 67.5158 106.132 68.5283 106.338 69.7394C106.504 70.7321 106.318 71.6851 105.887 72.5785C105.367 73.6407 104.73 74.6334 103.936 75.5169C103.485 76.0231 102.985 76.4798 102.426 76.857C101.23 77.6611 99.9256 78.0681 98.4844 77.9787C97.7588 77.939 97.0431 77.8795 96.3568 77.6412C96.0137 77.5221 95.6803 77.3831 95.3666 77.2044C94.6312 76.7676 94.19 76.1025 94.043 75.2488C94.0234 75.1099 93.994 74.9709 93.9645 74.8418C93.9645 74.7525 93.9449 74.7426 93.8959 74.683ZM96.7784 74.683C96.8078 74.9411 96.8078 75.1297 96.847 75.3183C96.9549 75.8842 97.2784 76.1621 97.8373 76.1919C98.2197 76.2117 98.5922 76.1323 98.9452 76.0033C99.6217 75.775 100.23 75.4275 100.788 74.9907C101.818 74.1767 102.622 73.1741 103.24 72.0127C103.445 71.6255 103.602 71.2185 103.681 70.7917C103.73 70.5534 103.749 70.3053 103.74 70.067C103.72 69.6699 103.504 69.382 103.161 69.2133C102.906 69.0842 102.641 69.0445 102.367 69.0445C101.426 69.0445 100.563 69.3026 99.808 69.8486C98.455 70.8214 97.4941 72.102 96.9843 73.7201C96.8765 74.0576 96.8372 74.4051 96.7784 74.683Z" fill="#141313"/>
<path d="M112.636 65.6257C112.796 65.4763 112.896 65.3867 112.996 65.2971C113.917 64.4806 115.029 64.0723 116.231 63.913C116.772 63.8433 117.313 63.9627 117.813 64.2117C118.324 64.4706 118.665 64.8689 118.885 65.3867C119.075 65.8448 119.145 66.3228 119.195 66.8107C119.356 68.384 119.145 69.9076 118.594 71.3913C117.813 73.5024 116.652 75.3744 114.989 76.9179C113.887 77.9436 112.535 78.3817 111.043 78.3618C110.172 78.3518 109.401 78.0431 108.72 77.4955C108.479 77.2963 108.259 77.0673 108.029 76.8582C107.938 76.7785 107.858 76.6889 107.788 76.6192C107.598 76.5993 107.498 76.6988 107.398 76.7984C107.197 76.9976 107.007 77.2067 106.807 77.3959C106.637 77.5552 106.456 77.6847 106.206 77.6847C105.735 77.6847 105.345 77.3162 105.305 76.8283C105.285 76.5793 105.365 76.3503 105.455 76.1213C105.946 74.8168 106.436 73.5024 106.947 72.2078C108.339 68.6629 109.891 65.1876 111.484 61.7322C112.726 59.0535 113.988 56.3848 115.219 53.7062C116.451 51.0474 117.663 48.3687 118.875 45.7C119.045 45.3216 119.235 44.9432 119.396 44.5549C119.516 44.2761 119.706 44.0869 119.997 44.0072C120.337 43.9176 120.678 43.8479 121.018 43.7782C121.048 43.7682 121.088 43.7782 121.118 43.7782C121.709 43.7782 121.849 43.9475 121.699 44.5051C121.529 45.1424 121.278 45.7598 121.018 46.3772C120.127 48.4982 119.245 50.6292 118.354 52.7602C117.162 55.5882 115.981 58.4262 114.649 61.1945C114.028 62.479 113.417 63.7835 112.806 65.078C112.746 65.2174 112.646 65.3668 112.636 65.6257ZM109.461 73.4127C109.481 73.6717 109.491 73.9306 109.521 74.1994C109.541 74.4085 109.591 74.6177 109.641 74.8168C109.741 75.2151 109.901 75.5736 110.182 75.8823C110.663 76.4101 111.213 76.4997 111.834 76.1512C112.125 75.9819 112.375 75.7628 112.595 75.5139C113.717 74.299 114.659 72.9646 115.4 71.4809C116.001 70.2661 116.421 69.0014 116.621 67.6571C116.672 67.3185 116.692 66.9601 116.652 66.6215C116.571 66.034 116.121 65.7552 115.55 65.8846C115.41 65.9145 115.279 65.9643 115.149 66.024C114.839 66.1833 114.518 66.3228 114.218 66.512C112.535 67.5874 111.213 69.0213 110.202 70.7241C109.711 71.5407 109.471 72.4468 109.461 73.4127Z" fill="#141313"/>
<path d="M141.491 77.2386C140.704 77.1984 140.035 77.1482 139.385 76.9573C139.05 76.8568 138.726 76.7463 138.42 76.5955C137.003 75.9022 136.649 74.5959 136.767 73.4805C136.846 72.7168 137.072 72.0033 137.407 71.32C138.007 70.1041 138.775 68.9988 139.729 68.0442C139.916 67.8633 140.113 67.6925 140.31 67.5217C140.832 67.0795 141.442 66.8786 142.121 66.8484C142.387 66.8384 142.643 66.8886 142.869 66.9991C143.194 67.17 143.499 67.1097 143.804 66.959C143.893 66.9087 143.991 66.8585 144.08 66.8183C144.493 66.6273 144.916 66.4867 145.369 66.4766C145.763 66.4666 146.166 66.4465 146.56 66.4766C147.79 66.5871 148.922 67.5016 149.128 68.9687C149.266 69.9032 149.109 70.7975 148.705 71.6416C148.085 72.9479 147.298 74.1437 146.274 75.1686C145.3 76.1333 144.178 76.8266 142.839 77.108C142.377 77.2085 141.875 77.2688 141.491 77.2386ZM140.802 75.4902C140.94 75.4701 141.147 75.45 141.344 75.3997C142.131 75.2088 142.83 74.837 143.469 74.3446C144.582 73.5006 145.428 72.4254 146.068 71.1793C146.284 70.7573 146.442 70.3051 146.511 69.8328C146.54 69.662 146.55 69.4811 146.54 69.3103C146.501 68.8682 146.284 68.5466 145.871 68.3959C145.644 68.3155 145.398 68.2753 145.162 68.2653C144.129 68.2452 143.194 68.5667 142.377 69.2098C141.304 70.0539 140.477 71.0889 139.956 72.3751C139.779 72.8173 139.641 73.2695 139.572 73.7417C139.523 74.0834 139.552 74.4049 139.641 74.7365C139.759 75.1686 140.044 75.4198 140.487 75.4801C140.566 75.4801 140.655 75.4801 140.802 75.4902Z" fill="#141313"/>
</svg>
