<svg width="22" height="14" viewBox="0 0 22 14" fill="none" xmlns="http://www.w3.org/2000/svg">
<path d="M14.364 0.92608H19.8537V2.27615H14.364V0.92608ZM8.86329 6.26778C10.0768 5.67922 10.7124 4.78382 10.7124 3.40028C10.7124 0.663877 8.70369 0 6.38399 0H0V13.735H6.56285C9.02289 13.735 11.3316 12.5356 11.3316 9.74616C11.3316 8.02232 10.5281 6.74756 8.86329 6.26778V6.26778ZM2.97736 2.3431H5.77036C6.84628 2.3431 7.81213 2.64714 7.81213 3.91353C7.81213 5.0795 7.06091 5.54812 5.996 5.54812H2.97736V2.3431ZM6.1556 11.4031H2.97461V7.62064H6.21889C7.52871 7.62064 8.35697 8.17573 8.35697 9.58159C8.35697 10.9651 7.36911 11.4031 6.1556 11.4031V11.4031ZM22 8.90656C22 5.96374 20.3022 3.51185 17.2313 3.51185C14.2457 3.51185 12.2149 5.79079 12.2149 8.77824C12.2149 11.8745 14.1383 14 17.2313 14C19.573 14 21.0892 12.9317 21.8184 10.6527H19.4437C19.185 11.5035 18.1338 11.9498 17.3166 11.9498C15.7371 11.9498 14.9116 11.0126 14.9116 9.4198H21.9807C21.989 9.25523 22 9.08229 22 8.90656V8.90656ZM14.9116 7.69596C14.9969 6.38773 15.8582 5.57043 17.146 5.57043C18.4998 5.57043 19.1767 6.37657 19.2951 7.69596H14.9116Z" fill="#141313"/>
</svg>
