<svg width="67" height="43" viewBox="0 0 67 43" fill="none" xmlns="http://www.w3.org/2000/svg">
<rect x="19.5498" y="0.66571" width="3.99454" height="3.99454" fill="#010101"/>
<rect x="-0.000183105" y="0.66571" width="3.99454" height="3.99454" fill="#010101"/>
<rect x="42.1205" width="3.99454" height="3.99454" transform="rotate(30 42.1205 0)" fill="#010101"/>
<rect x="64.2861" width="3.99454" height="3.99454" transform="rotate(60 64.2861 0)" fill="#010101"/>
<rect x="19.5496" y="19.4378" width="3.99454" height="3.99454" fill="#010101"/>
<rect x="-0.000366211" y="19.4376" width="3.99454" height="3.99454" fill="#010101"/>
<rect x="42.1855" y="18.7719" width="3.99454" height="3.99454" transform="rotate(30 42.1855 18.7719)" fill="#010101"/>
<rect x="64.2859" y="18.7719" width="3.99454" height="3.99454" transform="rotate(60 64.2859 18.7719)" fill="#010101"/>
<rect x="19.5496" y="38.2091" width="3.99454" height="3.99454" fill="#010101"/>
<rect x="-0.000366211" y="38.2091" width="3.99454" height="3.99454" fill="#010101"/>
<rect x="42.1855" y="37.5433" width="3.99454" height="3.99454" transform="rotate(30 42.1855 37.5433)" fill="#010101"/>
<rect x="64.2859" y="37.5433" width="3.99454" height="3.99454" transform="rotate(60 64.2859 37.5433)" fill="#010101"/>
</svg>
