<svg width="66" height="104" viewBox="0 0 66 104" fill="none" xmlns="http://www.w3.org/2000/svg">
<rect x="30.2526" y="0.509644" width="3.05551" height="3.05551" fill="#141313"/>
<rect x="15.2985" y="0.509644" width="3.05551" height="3.05551" fill="#141313"/>
<rect y="0.509644" width="3.05551" height="3.05551" fill="#141313"/>
<rect x="47.567" y="0.000183105" width="3.05551" height="3.05551" transform="rotate(30 47.567 0.000183105)" fill="#141313"/>
<rect x="64.4723" y="0.000183105" width="3.05551" height="3.05551" transform="rotate(60 64.4723 0.000183105)" fill="#141313"/>
<rect x="30.2526" y="14.6829" width="3.05551" height="3.05551" fill="#141313"/>
<rect x="15.2985" y="14.6829" width="3.05551" height="3.05551" fill="#141313"/>
<rect y="14.6829" width="3.05551" height="3.05551" fill="#141313"/>
<rect x="47.567" y="14.1738" width="3.05551" height="3.05551" transform="rotate(30 47.567 14.1738)" fill="#141313"/>
<rect x="64.4723" y="14.1738" width="3.05551" height="3.05551" transform="rotate(60 64.4723 14.1738)" fill="#141313"/>
<rect x="30.2526" y="28.8569" width="3.05551" height="3.05551" fill="#141313"/>
<rect x="15.2985" y="28.8569" width="3.05551" height="3.05551" fill="#141313"/>
<rect y="28.8569" width="3.05551" height="3.05551" fill="#141313"/>
<rect x="47.5175" y="28.3476" width="3.05551" height="3.05551" transform="rotate(30 47.5175 28.3476)" fill="#141313"/>
<rect x="64.4723" y="28.3476" width="3.05551" height="3.05551" transform="rotate(60 64.4723 28.3476)" fill="#141313"/>
<rect x="30.2526" y="43.0309" width="3.05551" height="3.05551" fill="#141313"/>
<rect x="15.2985" y="43.0309" width="3.05551" height="3.05551" fill="#141313"/>
<rect y="43.0309" width="3.05551" height="3.05551" fill="#141313"/>
<rect x="47.567" y="42.5215" width="3.05551" height="3.05551" transform="rotate(30 47.567 42.5215)" fill="#141313"/>
<rect x="64.4723" y="42.5215" width="3.05551" height="3.05551" transform="rotate(60 64.4723 42.5215)" fill="#141313"/>
<rect x="30.2526" y="57.2048" width="3.05551" height="3.05551" fill="#141313"/>
<rect x="15.2985" y="57.2048" width="3.05551" height="3.05551" fill="#141313"/>
<rect y="57.2048" width="3.05551" height="3.05551" fill="#141313"/>
<rect x="47.567" y="56.6957" width="3.05551" height="3.05551" transform="rotate(30 47.567 56.6957)" fill="#141313"/>
<rect x="64.4723" y="56.6957" width="3.05551" height="3.05551" transform="rotate(60 64.4723 56.6957)" fill="#141313"/>
<rect x="30.2526" y="71.3785" width="3.05551" height="3.05551" fill="#141313"/>
<rect x="15.2985" y="71.3785" width="3.05551" height="3.05551" fill="#141313"/>
<rect y="71.3785" width="3.05551" height="3.05551" fill="#141313"/>
<rect x="47.5175" y="70.8694" width="3.05551" height="3.05551" transform="rotate(30 47.5175 70.8694)" fill="#141313"/>
<rect x="64.4723" y="70.8694" width="3.05551" height="3.05551" transform="rotate(60 64.4723 70.8694)" fill="#141313"/>
<rect x="30.2526" y="85.553" width="3.05551" height="3.05551" fill="#141313"/>
<rect x="15.2985" y="85.553" width="3.05551" height="3.05551" fill="#141313"/>
<rect y="85.553" width="3.05551" height="3.05551" fill="#141313"/>
<rect x="47.567" y="85.0436" width="3.05551" height="3.05551" transform="rotate(30 47.567 85.0436)" fill="#141313"/>
<rect x="64.4723" y="85.0436" width="3.05551" height="3.05551" transform="rotate(60 64.4723 85.0436)" fill="#141313"/>
<rect x="30.2526" y="99.7264" width="3.05551" height="3.05551" fill="#141313"/>
<rect x="15.2985" y="99.7264" width="3.05551" height="3.05551" fill="#141313"/>
<rect y="99.7264" width="3.05551" height="3.05551" fill="#141313"/>
<rect x="47.567" y="99.2173" width="3.05551" height="3.05551" transform="rotate(30 47.567 99.2173)" fill="#141313"/>
<rect x="64.4723" y="99.2173" width="3.05551" height="3.05551" transform="rotate(60 64.4723 99.2173)" fill="#141313"/>
</svg>
