<svg width="22" height="21" viewBox="0 0 22 21" fill="none" xmlns="http://www.w3.org/2000/svg">
<path d="M20.9801 6.50738C20.9325 5.41665 20.758 4.66678 20.508 4.01702C20.25 3.3273 19.8532 2.7098 19.3333 2.19647C18.8253 1.67515 18.2102 1.27006 17.5356 1.01348C16.8888 0.760806 16.1507 0.584422 15.0713 0.536332C13.9839 0.484169 13.6386 0.472107 10.8806 0.472107C8.1226 0.472107 7.77738 0.484169 6.69399 0.532259C5.61462 0.58035 4.87256 0.75689 4.22972 1.0094C3.54703 1.27006 2.93597 1.67108 2.42798 2.19647C1.91209 2.7098 1.51138 3.33137 1.25731 4.0131C1.00727 4.66678 0.832726 5.41258 0.785137 6.50331C0.733517 7.60218 0.721581 7.95103 0.721581 10.7381C0.721581 13.5251 0.733517 13.874 0.781106 14.9688C0.828696 16.0595 1.0034 16.8094 1.25344 17.4592C1.51138 18.1489 1.91209 18.7664 2.42798 19.2797C2.93597 19.801 3.55106 20.2061 4.22569 20.4627C4.87256 20.7154 5.61059 20.8917 6.69011 20.9398C7.77335 20.9881 8.11873 21 10.8767 21C13.6348 21 13.98 20.9881 15.0634 20.9398C16.1427 20.8917 16.8848 20.7154 17.5277 20.4627C18.8929 19.9293 19.9722 18.8386 20.5001 17.4592C20.7499 16.8055 20.9246 16.0595 20.9722 14.9688C21.0198 13.874 21.0318 13.5251 21.0318 10.7381C21.0318 7.95103 21.0277 7.60218 20.9801 6.50738ZM19.1508 14.8886C19.1071 15.8911 18.9405 16.4325 18.8016 16.7934C18.4602 17.6877 17.7578 18.3975 16.8729 18.7424C16.5157 18.8828 15.9761 19.0512 14.9879 19.0952C13.9164 19.1434 13.5951 19.1553 10.8847 19.1553C8.17422 19.1553 7.84884 19.1434 6.78126 19.0952C5.78917 19.0512 5.25343 18.8828 4.89628 18.7424C4.45588 18.5779 4.05502 18.3173 3.72964 17.9764C3.39233 17.6435 3.13438 17.2425 2.97162 16.7975C2.83273 16.4366 2.66608 15.8911 2.62253 14.8927C2.57478 13.8099 2.563 13.485 2.563 10.7461C2.563 8.00711 2.57478 7.67831 2.62253 6.59964C2.66608 5.59711 2.83273 5.05574 2.97162 4.69482C3.13438 4.24964 3.39233 3.8447 3.73367 3.51575C4.06292 3.17488 4.45976 2.91422 4.90031 2.7499C5.25746 2.60955 5.79723 2.44115 6.78529 2.39698C7.85675 2.34889 8.17825 2.33683 10.8885 2.33683C13.603 2.33683 13.9243 2.34889 14.9919 2.39698C15.984 2.44115 16.5197 2.60955 16.8769 2.7499C17.3173 2.91422 17.7182 3.17488 18.0435 3.51575C18.3809 3.84862 18.6388 4.24964 18.8016 4.69482C18.9405 5.05574 19.1071 5.60102 19.1508 6.59964C19.1984 7.68238 19.2103 8.00711 19.2103 10.7461C19.2103 13.485 19.1984 13.8058 19.1508 14.8886Z" fill="#141313"/>
<path d="M10.8791 5.46497C7.99814 5.46497 5.66068 7.82688 5.66068 10.7383C5.66068 13.6497 7.99814 16.0117 10.8791 16.0117C13.7602 16.0117 16.0975 13.6497 16.0975 10.7383C16.0975 7.82688 13.7602 5.46497 10.8791 5.46497ZM10.8791 14.159C9.01008 14.159 7.49403 12.6272 7.49403 10.7383C7.49403 8.84947 9.01008 7.31762 10.8791 7.31762C12.7483 7.31762 14.2641 8.84947 14.2641 10.7383C14.2641 12.6272 12.7483 14.159 10.8791 14.159V14.159Z" fill="#141313"/>
<path d="M17.5242 5.256C17.5242 5.93571 16.9788 6.48684 16.306 6.48684C15.6334 6.48684 15.088 5.93571 15.088 5.256C15.088 4.57612 15.6334 4.02515 16.306 4.02515C16.9788 4.02515 17.5242 4.57612 17.5242 5.256V5.256Z" fill="#141313"/>
</svg>
