<svg width="57" height="39" viewBox="0 0 57 39" fill="none" xmlns="http://www.w3.org/2000/svg">
<path d="M5.25809 31.36C3.59809 31.36 2.36809 31.04 1.56809 30.4C0.788086 29.76 0.398086 28.94 0.398086 27.94C0.398086 27.32 0.598086 26.78 0.998086 26.32C1.39809 25.84 1.97809 25.6 2.73809 25.6C3.37809 25.6 3.89809 25.79 4.29809 26.17C4.71809 26.55 4.92809 27.03 4.92809 27.61C4.92809 28.01 4.85809 28.35 4.71809 28.63C4.57809 28.91 4.39809 29.11 4.17809 29.23V29.38C4.33809 29.42 4.49809 29.45 4.65809 29.47C4.83809 29.49 5.00809 29.5 5.16809 29.5C5.90809 29.5 6.46809 29.27 6.84809 28.81C7.22809 28.35 7.41809 27.56 7.41809 26.44V12.04H4.56809V10.06H14.3781V12.04H12.2781V24.85C12.2781 25.81 12.1481 26.69 11.8881 27.49C11.6481 28.29 11.2481 28.98 10.6881 29.56C10.1281 30.12 9.39809 30.56 8.49809 30.88C7.61809 31.2 6.53809 31.36 5.25809 31.36ZM21.1518 31.36C19.4518 31.36 18.2118 30.97 17.4318 30.19C16.6718 29.39 16.2918 28.28 16.2918 26.86C16.2918 23.76 18.5818 22.21 23.1618 22.21H25.2618V20.5C25.2618 19.28 25.0318 18.36 24.5718 17.74C24.1118 17.12 23.3118 16.81 22.1718 16.81C21.7518 16.81 21.3918 16.84 21.0918 16.9C20.7918 16.96 20.5318 17.04 20.3118 17.14V17.29C20.5118 17.39 20.7018 17.57 20.8818 17.83C21.0818 18.09 21.1818 18.44 21.1818 18.88C21.1818 19.48 20.9918 19.99 20.6118 20.41C20.2318 20.81 19.6618 21.01 18.9018 21.01C18.3018 21.01 17.8018 20.8 17.4018 20.38C17.0018 19.96 16.8018 19.43 16.8018 18.79C16.8018 18.31 16.9418 17.84 17.2218 17.38C17.5018 16.9 17.9218 16.48 18.4818 16.12C19.0418 15.76 19.7318 15.47 20.5518 15.25C21.3918 15.03 22.3518 14.92 23.4318 14.92C25.6118 14.92 27.2218 15.39 28.2618 16.33C29.3018 17.25 29.8218 18.56 29.8218 20.26V29.02H31.6218V30.73C31.2818 30.93 30.8418 31.08 30.3018 31.18C29.7618 31.3 29.2018 31.36 28.6218 31.36C27.5218 31.36 26.7418 31.11 26.2818 30.61C25.8418 30.09 25.6218 29.45 25.6218 28.69V28.63H25.4418C25.3018 28.97 25.1218 29.3 24.9018 29.62C24.7018 29.94 24.4318 30.23 24.0918 30.49C23.7718 30.75 23.3718 30.96 22.8918 31.12C22.4118 31.28 21.8318 31.36 21.1518 31.36ZM22.8618 28.66C23.6018 28.66 24.1818 28.49 24.6018 28.15C25.0418 27.81 25.2618 27.22 25.2618 26.38V24.01H23.6418C22.6818 24.01 21.9618 24.21 21.4818 24.61C21.0218 25.01 20.7918 25.58 20.7918 26.32V26.8C20.7918 27.44 20.9818 27.91 21.3618 28.21C21.7418 28.51 22.2418 28.66 22.8618 28.66ZM41.2604 31.36C40.0004 31.36 38.8904 31.15 37.9304 30.73C36.9904 30.31 36.1904 29.73 35.5304 28.99C34.8904 28.25 34.4004 27.38 34.0604 26.38C33.7404 25.38 33.5804 24.29 33.5804 23.11C33.5804 21.79 33.7904 20.63 34.2104 19.63C34.6304 18.61 35.2004 17.75 35.9204 17.05C36.6604 16.35 37.5204 15.82 38.5004 15.46C39.5004 15.1 40.5704 14.92 41.7104 14.92C43.5504 14.92 44.9604 15.3 45.9404 16.06C46.9404 16.82 47.4404 17.78 47.4404 18.94C47.4404 19.7 47.2304 20.31 46.8104 20.77C46.3904 21.21 45.8104 21.43 45.0704 21.43C44.3304 21.43 43.7604 21.24 43.3604 20.86C42.9604 20.46 42.7604 19.94 42.7604 19.3C42.7604 18.78 42.8904 18.35 43.1504 18.01C43.4304 17.67 43.7404 17.42 44.0804 17.26V17.08C43.8804 17.02 43.6404 16.96 43.3604 16.9C43.1004 16.84 42.7404 16.81 42.2804 16.81C41.0604 16.81 40.1104 17.2 39.4304 17.98C38.7504 18.74 38.4104 19.84 38.4104 21.28V24.4C38.4104 25.72 38.7204 26.73 39.3404 27.43C39.9604 28.11 40.8204 28.45 41.9204 28.45C43.0404 28.45 43.9304 28.19 44.5904 27.67C45.2504 27.15 45.7204 26.54 46.0004 25.84L47.6804 26.83C47.5004 27.33 47.2404 27.85 46.9004 28.39C46.5804 28.93 46.1604 29.42 45.6404 29.86C45.1204 30.3 44.5004 30.66 43.7804 30.94C43.0604 31.22 42.2204 31.36 41.2604 31.36ZM52.7251 31.36C51.8451 31.36 51.1751 31.11 50.7151 30.61C50.2551 30.09 50.0251 29.47 50.0251 28.75V28.63C50.0251 27.91 50.2551 27.3 50.7151 26.8C51.1751 26.28 51.8451 26.02 52.7251 26.02C53.6051 26.02 54.2751 26.28 54.7351 26.8C55.1951 27.3 55.4251 27.91 55.4251 28.63V28.75C55.4251 29.47 55.1951 30.09 54.7351 30.61C54.2751 31.11 53.6051 31.36 52.7251 31.36Z" fill="white"/>
</svg>
