<svg width="12" height="18" viewBox="0 0 12 18" fill="none" xmlns="http://www.w3.org/2000/svg">
<path fill-rule="evenodd" clip-rule="evenodd" d="M9.58435 8.87938L5.99996 14.7917L2.41557 8.87938C0.677036 6.01171 2.69699 2.30908 5.99996 2.30908C9.30293 2.30908 11.3229 6.01171 9.58435 8.87938ZM1.04793 9.74387C-1.35394 5.78204 1.43673 0.666656 5.99996 0.666656C10.5632 0.666656 13.3539 5.78204 10.952 9.74387L6.53553 17.0287C6.28928 17.4349 5.71064 17.4349 5.46439 17.0287L1.04793 9.74387ZM6.00012 4.77271C5.11178 4.77271 4.39164 5.50805 4.39164 6.41514C4.39164 7.32222 5.11178 8.05756 6.00012 8.05756C6.88846 8.05756 7.6086 7.32222 7.6086 6.41514C7.6086 5.50805 6.88846 4.77271 6.00012 4.77271Z" fill="black"/>
</svg>
