<svg width="48" height="38" viewBox="0 0 48 38" fill="none" xmlns="http://www.w3.org/2000/svg">
<path d="M4.22154 34.1893C1.47487 31.272 0.000207936 28 0.000208399 22.696C0.000209215 13.3626 6.55221 4.99731 16.0802 0.861309L18.4615 4.53598C9.56821 9.34664 7.82954 15.5893 7.13621 19.5253C8.56821 18.784 10.4429 18.5253 12.2802 18.696C17.0909 19.1413 20.8829 23.0906 20.8829 28C20.8829 30.4753 19.8995 32.8493 18.1492 34.5996C16.3989 36.35 14.0249 37.3333 11.5495 37.3333C8.68821 37.3333 5.95221 36.0266 4.22154 34.1893ZM30.8882 34.1893C28.1415 31.272 26.6669 28 26.6669 22.696C26.6669 13.3626 33.2189 4.99731 42.7469 0.861311L45.1282 4.53598C36.2349 9.34665 34.4962 15.5893 33.8029 19.5253C35.2349 18.784 37.1095 18.5253 38.9469 18.696C43.7575 19.1413 47.5469 23.0906 47.5469 28C47.5469 30.4753 46.5635 32.8493 44.8132 34.5996C43.0629 36.35 40.6889 37.3333 38.2135 37.3333C35.3522 37.3333 32.6162 36.0266 30.8855 34.1893L30.8882 34.1893Z" fill="#3F3F3F"/>
</svg>
