<svg width="20" height="20" viewBox="0 0 20 20" fill="none" xmlns="http://www.w3.org/2000/svg">
<path fill-rule="evenodd" clip-rule="evenodd" d="M3.33329 4.16667C3.33329 3.70643 3.70639 3.33334 4.16663 3.33334H15.8333C16.2935 3.33334 16.6666 3.70643 16.6666 4.16667V15.8333C16.6666 16.2936 16.2935 16.6667 15.8333 16.6667L15 16.6667C15 14.3655 13.1345 12.5 10.8333 12.5H9.16663C6.86544 12.5 4.99996 14.3655 4.99996 16.6667L4.16663 16.6667C3.70639 16.6667 3.33329 16.2936 3.33329 15.8333V4.16667ZM6.66663 16.6667H13.3333C13.3333 15.286 12.214 14.1667 10.8333 14.1667H9.16663C7.78591 14.1667 6.66663 15.286 6.66663 16.6667ZM4.16663 1.66667C2.78591 1.66667 1.66663 2.78596 1.66663 4.16667V15.8333C1.66663 17.2141 2.78591 18.3333 4.16663 18.3333H15.8333C17.214 18.3333 18.3333 17.2141 18.3333 15.8333V4.16667C18.3333 2.78596 17.214 1.66667 15.8333 1.66667H4.16663ZM8.33329 8.33334C8.33329 9.25381 9.07948 10 9.99996 10C10.9204 10 11.6666 9.25381 11.6666 8.33334C11.6666 7.41286 10.9204 6.66667 9.99996 6.66667C9.07948 6.66667 8.33329 7.41286 8.33329 8.33334ZM9.99996 5.00001C8.15901 5.00001 6.66663 6.49239 6.66663 8.33334C6.66663 10.1743 8.15901 11.6667 9.99996 11.6667C11.8409 11.6667 13.3333 10.1743 13.3333 8.33334C13.3333 6.49239 11.8409 5.00001 9.99996 5.00001Z" fill="#141313"/>
</svg>
